<?xml version="1.0" encoding="UTF-8"?>
<svg id="katman_1" xmlns="http://www.w3.org/2000/svg" version="1.1" viewBox="0 0 1024 1024">
  <!-- Generator: Adobe Illustrator 29.8.1, SVG Export Plug-In . SVG Version: 2.1.1 Build 2)  -->
  <defs>
    <style>
      .st0, .st1 {
        fill: #a1a5a7;
      }

      .st2 {
        fill: #2bade9;
      }

      .st3 {
        fill: #f8fafa;
      }

      .st4 {
        fill: #229ed8;
      }

      .st5 {
        fill: #0d376a;
      }

      .st6 {
        fill: #2da2db;
      }

      .st1 {
        font-family: Poppins-Medium, Poppins;
        font-size: 38.44px;
        font-weight: 500;
      }

      .st7 {
        fill: #0f3769;
      }

      .st8 {
        fill: #279dd9;
      }

      .st9 {
        fill: #09366b;
      }

      .st10 {
        fill: #27a0dd;
      }

      .st11 {
        fill: #fafcfd;
      }

      .st12 {
        fill: #38b2e9;
      }

      .st13 {
        fill: #0a366a;
      }

      .st14 {
        fill: #123a6b;
      }

      .st15 {
        fill: #fefefe;
      }

      .st16 {
        fill: #aaacad;
      }
    </style>
  </defs>
  <path class="st15" d="M528.8,318.95c-11.16-.53-22.33-1.7-33.47-1.48-41.79.82-83.56,2.15-125.35,3.1-5.1.12-5.42,2.89-5.43,6.63,19.25.67,38.2,1.34,57.14,2-9.59,5.29-19.11,10.35-29.11,14.1-7.41,2.78-15.38,4.62-23.25,5.51-10.35,1.16-20.85.97-32.31,1.2-7.48.06-14.96.12-22.44.17q-7.44.05-7.11,8.61c6.49,0,13.03,0,20.49.2,7.43.5,14.85,1.01,22.6,1.54-.24,2.88-.57,5.23-.6,7.59-.06,4.43-1.74,6.16-6.6,6.3-19.79.58-39.56,1.67-59.34,2.66-8.12.41-16.23,1.03-24.35,1.55.02.43.03.85.05,1.28,28.25,1.31,56.49,2.62,84.33,3.92.38,6.14-3.31,6.54-7.45,6.81-9.75.64-19.49,1.51-29.23,2.28,9.52,2.07,19,2.97,28.47,3.92q8.62.86,9.77,10.49c-12.44.63-24.84,1.26-38.07,1.57-1.4-.92-3.05-1.59-4.14-2.79-3.82-4.2-9.33-4.75-13.03-1.07-3.6,3.58-3.37,9.24.51,12.6,3.97,3.43,9.35,2.51,12.93-1.9,1.09-1.34,2.99-2.04,5.52-2.87,14.1.61,28.22.96,42.3,1.95,6.11.43,12.18,1.99,18.19,3.38,5.4,1.26,10.69,3,16.63,4.7-4.06-17.16.47-30.48,14.41-39.69,12.04-7.96,24.78-7.82,36.63.39,14.57,10.11,17.39,24.49,12.66,41.69h167.69c-5.46-17.38-2.03-32.52,14.34-42.64,12.14-7.5,24.97-7.27,36.73,1.08,14.76,10.48,16.91,25.15,11.82,42.41,12.57-1.22,24.61-2.04,36.5-3.86,2.16-.33,4.3-4.52,5.31-7.34.7-1.97-1.18-4.75-.8-6.98,2.79-16.23-1.65-27.21-16.86-33.5-14.62-6.04-29.98-10.73-45.43-14.2-19.85-4.47-40.97-4.09-58.42-16.81-.13-.1-.36-.07-1.04-.69-11.41-5.23-22.49-11.45-34.33-15.41-11.61-3.88-24-5.46-36.85-8.41M606.46,226.72c-53.71-9.14-107.31-8.62-160.8,1.79-23.96,4.66-47.39,11.19-70.03,20.37-1.92.78-4.75,2.68-4.8,4.14-.38,12.38-.22,24.79-.22,37.02h26.57c0-5.41.33-10.38-.1-15.29-.39-4.42,1.16-6.33,5.39-7.76,36.06-12.21,73.19-18.26,111.12-19.76,49.56-1.97,98.05,3.94,145.22,19.72,4.38,1.47,5.91,3.54,5.68,8.14-1.25,25.22-2.22,50.46-3.3,76.14,7.02,1.81,15.23,3.93,23.61,6.1.35-1.51.74-2.73.9-3.98,4.05-32.26,5.56-64.65,5.19-97.16-.05-4.19-1.56-6-5.31-7.52-25.24-10.26-51.45-16.97-79.13-21.95M608.39,519.74c22.75-21.58,40.75-46.48,52.54-74.11-8.2-.58-16.63-1.34-25.08-1.64-1.41-.05-3.51,1.5-4.25,2.87-22.68,41.99-56.69,72.38-97.71,95.56-1.72.97-5.02.82-6.78-.19-29.37-16.82-55.75-37.24-76.52-64.33-.91-1.19-2.44-2.66-3.71-2.69-9.67-.23-19.35-.12-29.92-.12,1.67,2.81,2.66,4.7,3.85,6.45,27.43,40.27,64.52,69.15,107.58,90.91,1.53.77,4.26.32,5.95-.52,27.14-13.44,51.57-30.76,74.05-52.18M304.43,679.37c7.56,9.11,17.63,13.5,29.05,15.05,31.71,4.3,56.42-21.52,49.07-51.19-4.07-16.43-17.23-28.53-34.08-30.99-18.93-2.77-35.56,1.13-46.78,18.04-9.64,14.53-8.53,32.99,2.74,49.09M558.64,627.54c7.06,1.53,14.12,3.06,21.5,4.66,1.49-4.33,3.14-9.1,5.09-14.74-5.57-1.71-10.49-3.73-15.61-4.7-12.88-2.44-25.64-2.43-37.13,5.13-7.3,4.81-10.79,11.96-10.25,20.67.55,8.96,5.6,15.03,13.82,18.16,5.45,2.08,11.22,3.33,16.8,5.09,4.17,1.32,8.57,2.32,12.34,4.42,4.99,2.79,4.47,8.96-.81,11.17-2.79,1.17-6.02,1.64-9.07,1.79-10,.47-19.03-2.84-27.92-8.3-2.16,5.17-4.16,9.97-6.13,14.67,14.45,11.27,41.92,12.93,56.62,3.54,7.58-4.84,11.29-11.95,10.79-20.92-.5-9.08-5.67-14.95-14.03-17.84-5.87-2.03-11.96-3.41-17.93-5.14-3.33-.97-6.93-1.54-9.83-3.27-2-1.2-4.15-4.1-4.11-6.19.04-2.17,2.2-5.28,4.24-6.2,3.19-1.45,7.06-1.41,11.63-1.99M500.4,637.53c-7.69-6.23-16.64-8.19-26.26-7.49-17.49,1.27-29.31,12.77-30.92,29.87-1.46,15.45,8.61,29.27,24.32,33.37,16.59,4.33,33.46-2.17,40.92-15.77,7.03-12.8,4.05-28.62-8.05-39.98M672.65,677c-8.35,3.24-15.67,1.42-19.45-4.84-4.35-7.2-2.96-17.96,2.93-22.72,6.66-5.37,13.52-4.05,23.64,4.67,4.65-2.21,9.36-4.46,14.02-6.68-4.57-12.98-18.69-19.71-34.74-16.94-16.88,2.91-27.98,15.42-28.02,31.6-.04,16.64,11.32,29.41,28.71,32.26,15.05,2.47,29.46-4.56,33.74-16.67-4.66-2.32-9.34-4.66-13.83-6.9-2.25,2.08-4.25,3.93-6.99,6.21M419.64,674.62v-27.61h14.78v-14.89h-15.14v-15.24h-19.59v15.3c-3.48.16-6.5.31-9.46.44v14.42c3.27.21,6.27.4,9.71.62,0,8.41-.07,16.45.02,24.49.09,8.33,2.25,15.8,10.46,19.68,9.32,4.4,18.63,3.89,27.98-.85-1.77-4.75-3.35-8.99-4.99-13.4-5.04,1.7-9.9,3.44-13.76-2.97M646.14,384.28c-11.86,1.66-21.39,10.53-23.68,22.03-2.15,10.75,2.73,21.74,12.34,27.83,9.78,6.19,22.5,5.71,31.34-1.2,9.5-7.42,12.97-19.47,8.91-30.96-4.11-11.62-13.87-17.83-28.91-17.7M398.73,429.8c2.32,1.77,4.49,3.82,7,5.25,10.76,6.13,23.47,4.19,32.27-4.71,8.83-8.93,10.42-21.81,4.05-32.86-5.97-10.35-18.04-15.36-29.7-12.43-18.83,4.72-27.81,27.68-13.62,44.75M758.69,689.52v-80.44h-18.56v84.31c5.6,0,10.87.13,16.13-.13.85-.04,1.62-1.76,2.44-3.74M600.35,673.28v19.79h18.85v-61.27h-18.85c0,13.72,0,27.05,0,41.48M723.16,663.37v-31.54h-19v61.08h19c0-9.8,0-19.12,0-29.54M442.09,298.4c-27.51,0-55.03.06-82.54-.12-2.14-.01-4.8-1.19-6.3-2.73-4.07-4.16-9.2-4.98-13.11-1.42-3.67,3.33-3.59,9.38.17,12.71,4.07,3.61,9.12,2.89,13.11-1.35,1.39-1.47,3.76-2.83,5.69-2.84,45.3-.17,90.61-.13,135.92-.18,3.05,0,5.27.37,7.24,3.45,2.75,4.28,8.88,4.31,12.59.85,3.5-3.26,3.51-8.85.03-12.3-3.63-3.59-9.5-3.59-12.55.74-1.94,2.75-4,3.15-6.87,3.14-17.42-.04-34.85,0-53.38.03M429.97,466.82c30.27-.01,60.55-.33,90.82.15,8.53.14,14.89-1.81,20.53-8.43,6.48-7.6,13.99-14.31,21.06-21.41-.38-.55-.76-1.1-1.15-1.65-2.2,1.16-4.8,1.9-6.53,3.56-7.01,6.73-13.63,13.87-20.67,20.57-1.64,1.56-4.35,2.82-6.58,2.83-42.02.19-84.03.22-126.05.07-2.07,0-4.59-1.44-6.1-2.98-3.58-3.64-9.13-4.24-12.78-.81-3.55,3.34-3.51,8.73.08,12.26,3.6,3.55,9.56,3.38,12.47-1.02,1.86-2.82,3.92-3.27,6.81-3.23,8.99.12,17.98.08,28.07.1M529.24,437.33c-3.35-2.68-5.53-.5-7.64,1.86-2.46,2.76-4.84,4.88-9.2,4.86-46.06-.19-92.11-.12-138.17-.08-3.54,0-6.4-.2-8.98-3.62-3.09-4.1-9.31-3.47-12.52.36-3.02,3.6-2.48,9.29,1.17,12.31,3.52,2.91,9.93,2.55,12.22-1.4,1.86-3.21,4.16-3.45,7.22-3.45,43.86.05,87.72-.32,131.56.28,10.27.14,18.14-2.03,24.33-11.13M493.32,495.88c3.8,3.44,8.43,4.52,11.56.28,3-4.07,6.39-4.03,10.42-3.93,4.03.11,8.09-.23,12.1.08,3.81.3,6.51-.98,9.18-3.69,15.95-16.22,32.06-32.29,48.09-48.42,1.07-1.08,1.98-2.32,2.96-3.49-.34-.48-.67-.97-1.01-1.45-2.25,1.15-4.97,1.82-6.67,3.51-15.2,15.15-30.22,30.49-45.29,45.77-2.99,3.03-23.08,5.37-26.62,3.03-.57-.38-.83-1.19-1.3-1.76-3.95-4.77-7.74-5.77-11.82-3.15-4.26,2.73-4.92,6.57-1.61,13.21M519.58,284.38c7.92,8.14,15.74,16.39,23.84,24.35,1.7,1.67,4.43,2.3,6.69,3.41.27-.45.55-.9.82-1.34-7.08-7.33-14.7-14.22-21.11-22.1-7.28-8.96-15.61-13.66-27.32-11.64-3.03.52-6.22.02-9.33.08-4.02.07-7.6.24-10.49-3.96-2.51-3.65-7.91-3.03-11.19.2-3.46,3.43-3.44,8.89.05,12.31,3.29,3.22,8.85,3.82,11.18.1,3.12-4.99,7.36-4.48,11.86-4.5,6.05-.03,12.11-.29,18.14.01,2.11.11,4.15,1.61,6.85,3.07M554.96,286.49c.3-.86.71-1.7.88-2.59,1.1-5.77-1.44-10.01-6.43-10.83-5.17-.84-9.33,2.12-9.86,7.04-.62,5.65,2.41,8.92,8.56,9.53,1.52.15,3.37.57,4.39,1.56,4.99,4.82,10.11,9.58,14.51,14.93,3.91,4.74,8.07,7.64,14.43,6.61,4.4-.71,7.41,1.3,10.35,4.67,5.53,6.33,11.54,12.28,17.69,18.02,1.81,1.69,4.77,2.15,7.2,3.17.21-.46.42-.91.63-1.37-7.58-7.63-15.38-15.06-22.65-22.97-4.04-4.4-8.31-6.68-14.35-6.06-2.13.22-5.08-.29-6.52-1.66-6.48-6.17-12.55-12.76-18.82-20.06M635.34,338.55c4.43,3.33,6.85,9.79,15.27,9.77-15.77-16.12-30.47-31.19-45.24-46.19-2.61-2.65-4.72-4.78-3.37-9.33,1.39-4.66-2.81-9.04-7.66-9.43-4.48-.36-8.25,2.76-8.79,7.27-.59,4.88,2.79,8.76,7.68,9.69,2.62.5,5.59,1.53,7.43,3.33,11.53,11.29,22.78,22.86,34.67,34.9M603.86,622.4c8.28,2.97,14.89.96,17.19-5.22,1.83-4.92-.21-10.26-4.82-12.63-5.43-2.79-12.78-1.39-15.96,3.03-3.34,4.64-2.36,9.58,3.59,14.82M724.58,611.32c-2.67-7.3-9.69-10.4-16.64-7.35-5.55,2.44-7.93,9.07-5.1,14.18,3.11,5.62,11.54,7.46,17.33,3.77,3.6-2.3,5.02-5.62,4.41-10.61M599.73,442.79c-5.56,5.58-11,11.29-16.77,16.65-1.68,1.56-4.21,2.67-6.5,3-5.8.82-8.94,4.02-8.39,9.37.52,5.02,4.75,8.41,9.53,7.62,5.18-.85,7.58-4.91,6.89-10.59-.21-1.76.54-4.19,1.75-5.49,7.46-8.06,15.19-15.88,22.8-23.81.89-.93,1.62-2.02,2.57-3.23-6.16-1.65-8.07,3.33-11.89,6.48M353.45,322.52c-9.7-.2-19.4-.26-29.08-.73-1.82-.09-3.95-1.46-5.26-2.87-3.77-4.06-8.66-4.71-12.58-1.23-3.24,2.87-3.42,8.54-.39,11.95,3.23,3.63,8.02,3.43,12.3.2,2.11-1.59,4.98-2.88,7.56-2.99,8.41-.36,16.85-.03,25.28-.13,4.04-.05,4.15-.36,2.16-4.19M267.95,355.51c8.53.6,17.05,1.21,26.16,1.85-.23-2.4-.39-4.09-.6-6.24-8.71.89-16.86,1.69-25.01,2.6-.5.06-.91.98-.55,1.79"/>
  <path class="st4" d="M338.04,350.17c10.44-.39,20.94-.2,31.29-1.36,7.87-.88,15.84-2.73,23.25-5.51,10-3.75,19.52-8.81,29.11-14.1-18.95-.66-37.9-1.33-57.14-2,.02-3.74.34-6.51,5.43-6.63,41.78-.96,83.56-2.29,125.35-3.1,11.14-.22,22.31.95,33.61,1.98-4.06,1.68-2.22,5.14-3.12,7.81-7.08.04-13.65.04-20.93.04,3.19,8.18,6.45,16.09,9.31,24.13,1.35,3.79,3.3,5.21,7.49,5.36,21.61.75,43.19,2,64.79,2.89,7.13.29,14.29.05,22.69.05-8.06-4.96-15.05-9.26-21.59-13.68,4.15-3.15,8.3-4.02,12.91-2.67.18.03.4,0,.54.1,17.46,12.72,38.57,12.34,58.42,16.81,15.44,3.47,30.81,8.16,45.43,14.2,15.21,6.28,19.65,17.26,16.86,33.5-.38,2.23,1.51,5.01.8,6.98-1.01,2.82-3.15,7.01-5.31,7.34-11.89,1.82-23.93,2.64-36.5,3.86,5.09-17.26,2.94-31.93-11.82-42.41-11.76-8.35-24.59-8.59-36.73-1.08-16.37,10.12-19.8,25.26-14.34,42.64h-167.69c4.74-17.2,1.91-31.58-12.66-41.69-11.85-8.22-24.59-8.35-36.63-.39-13.94,9.21-18.47,22.53-14.41,39.69-5.94-1.7-11.23-3.44-16.63-4.7-6.01-1.4-12.07-2.95-18.19-3.38-14.08-.99-28.2-1.34-42.8-2.38-.49-1.36-.48-2.29-.47-3.23,12.41-.63,24.81-1.26,37.25-1.89q-1.15-9.61-9.77-10.49c-9.47-.95-18.94-1.85-28.47-3.92,9.74-.77,19.48-1.64,29.23-2.28,4.13-.27,7.82-.67,7.45-6.81-27.84-1.29-56.08-2.6-84.33-3.92-.02-.43-.03-.85-.05-1.28,8.12-.52,16.23-1.14,24.35-1.55,19.77-.99,39.55-2.08,59.34-2.66,4.86-.14,6.54-1.87,6.6-6.3.03-2.35.36-4.7.6-7.59-7.75-.53-15.18-1.03-22.99-2.01,1.96-1.65,4.47-2.59,6.61-4.06,1.54-1.06,2.59-2.83,3.86-4.28M448.59,332.28c-8.01,4.88-16.02,9.76-24.02,14.64.25.86.5,1.72.74,2.58,24.37,5.43,49.37,3.68,74.62,6.05-1.86-8.92-3.44-16.97-5.32-24.95-.33-1.39-1.97-3.56-2.97-3.54-14.24.23-28.58-.02-43.05,5.23M684.22,377.52c5.56,13.62,17.64,10.85,28.7,11.19-1.63-2.45-3.42-4.69-5.63-6.4-5.32-4.11-18.78-7.17-23.07-4.78Z"/>
  <path class="st13" d="M606.93,226.78c27.21,4.92,53.41,11.62,78.65,21.89,3.75,1.52,5.26,3.34,5.31,7.52.37,32.5-1.13,64.89-5.19,97.16-.16,1.25-.55,2.47-.9,3.98-8.38-2.16-16.59-4.28-23.61-6.1,1.08-25.68,2.06-50.92,3.3-76.14.23-4.6-1.3-6.68-5.68-8.14-47.17-15.79-95.66-21.69-145.22-19.72-37.94,1.51-75.06,7.55-111.12,19.76-4.23,1.43-5.78,3.34-5.39,7.76.43,4.91.1,9.88.1,15.29h-26.57c0-12.24-.16-24.64.22-37.02.05-1.45,2.88-3.36,4.8-4.14,22.64-9.18,46.07-15.7,70.03-20.37,53.49-10.41,107.09-10.93,161.28-1.73Z"/>
  <path class="st9" d="M608.1,520.01c-22.2,21.16-46.63,38.48-73.77,51.92-1.7.84-4.42,1.3-5.95.52-43.05-21.76-80.14-50.64-107.58-90.91-1.2-1.75-2.19-3.65-3.85-6.45,10.57,0,20.25-.1,29.92.12,1.27.03,2.8,1.5,3.71,2.69,20.77,27.09,47.15,47.51,76.52,64.33,1.77,1.01,5.06,1.16,6.78.19,41.02-23.18,75.03-53.57,97.71-95.56.74-1.37,2.84-2.92,4.25-2.87,8.45.31,16.88,1.06,25.08,1.64-11.79,27.64-29.79,52.54-52.82,74.38Z"/>
  <path class="st7" d="M304.19,679.05c-11.03-15.78-12.14-34.24-2.5-48.77,11.22-16.92,27.85-20.81,46.78-18.04,16.84,2.46,30,14.56,34.08,30.99,7.35,29.66-17.36,55.49-49.07,51.19-11.42-1.55-21.49-5.94-29.28-15.37M351.89,631.64c-13.48-6.66-27.5-2.96-33.8,8.92-6.43,12.12-2,28.21,9.53,34.6,11.04,6.12,25.61,2.7,32.17-7.55,7.44-11.64,4.35-26.95-7.9-35.97Z"/>
  <path class="st10" d="M558.15,627.53c-4.07.59-7.94.55-11.13,2-2.04.93-4.2,4.03-4.24,6.2-.04,2.1,2.11,5,4.11,6.19,2.89,1.73,6.5,2.31,9.83,3.27,5.97,1.73,12.06,3.11,17.93,5.14,8.36,2.89,13.53,8.75,14.03,17.84.49,8.97-3.22,16.08-10.79,20.92-14.7,9.4-42.17,7.74-56.62-3.54,1.96-4.7,3.97-9.5,6.13-14.67,8.89,5.46,17.92,8.77,27.92,8.3,3.06-.14,6.28-.62,9.07-1.79,5.28-2.21,5.8-8.38.81-11.17-3.76-2.1-8.16-3.1-12.34-4.42-5.58-1.76-11.34-3.01-16.8-5.09-8.22-3.13-13.27-9.19-13.82-18.16-.53-8.71,2.95-15.86,10.25-20.67,11.48-7.56,24.25-7.58,37.13-5.13,5.12.97,10.04,2.99,15.61,4.7-1.94,5.63-3.59,10.41-5.09,14.74-7.38-1.6-14.44-3.13-22-4.66Z"/>
  <path class="st5" d="M500.7,637.78c11.8,11.11,14.78,26.93,7.75,39.73-7.47,13.6-24.33,20.1-40.92,15.77-15.71-4.1-25.77-17.92-24.32-33.37,1.62-17.1,13.43-28.6,30.92-29.87,9.62-.7,18.57,1.27,26.56,7.74M487.47,649.23c-6.48-4.27-13.93-4.52-18.95-.63-5.27,4.08-7.38,12.59-4.98,20.13,2.09,6.6,7.67,10.55,14.56,10.32,7.02-.23,12.74-4.87,14.05-11.72,1.22-6.38.55-12.44-4.69-18.1Z"/>
  <path class="st10" d="M673.02,676.79c2.37-2.07,4.37-3.92,6.62-5.99,4.49,2.24,9.18,4.58,13.83,6.9-4.28,12.12-18.68,19.14-33.74,16.67-17.39-2.86-28.76-15.62-28.71-32.26.04-16.18,11.14-28.7,28.02-31.6,16.05-2.76,30.18,3.96,34.74,16.94-4.66,2.22-9.37,4.46-14.02,6.68-10.12-8.72-16.97-10.04-23.64-4.67-5.9,4.75-7.28,15.52-2.93,22.72,3.79,6.26,11.1,8.08,19.82,4.62Z"/>
  <path class="st14" d="M419.8,675.06c3.7,5.97,8.55,4.22,13.6,2.53,1.64,4.41,3.22,8.65,4.99,13.4-9.35,4.73-18.66,5.25-27.98.85-8.21-3.88-10.37-11.35-10.46-19.68-.09-8.04-.02-16.08-.02-24.49-3.44-.22-6.44-.41-9.71-.62v-14.42c2.96-.14,5.98-.28,9.46-.44v-15.3h19.59v15.24h15.14v14.89h-14.78c0,9.49,0,18.55.16,28.05Z"/>
  <path class="st0" d="M646.63,384.26c14.54-.11,24.31,6.1,28.42,17.72,4.06,11.49.59,23.54-8.91,30.96-8.84,6.91-21.56,7.39-31.34,1.2-9.61-6.08-14.49-17.08-12.34-27.83,2.3-11.5,11.83-20.37,24.18-22.06M652.48,397.14c-8.26-2.47-16.11,4.2-17.22,11.18-1.43,8.96,3.85,16.03,12.82,17.14,6.76.84,13.6-3.83,15.43-10.53,2.07-7.59-1.69-14.06-11.03-17.79Z"/>
  <path class="st0" d="M398.47,429.49c-13.93-16.77-4.95-39.73,13.88-44.45,11.66-2.92,23.73,2.08,29.7,12.43,6.37,11.05,4.79,23.93-4.05,32.86-8.81,8.9-21.51,10.84-32.27,4.71-2.51-1.43-4.68-3.48-7.26-5.55M417.18,396.68c-1.56.51-3.19.87-4.67,1.55-5.6,2.61-9.16,9.2-8.13,14.83,1.29,7.06,6.96,12.23,13.92,12.68,5.73.37,12.17-3.83,13.92-9.62,2.81-9.27-1.44-18.8-15.04-19.45Z"/>
  <path class="st8" d="M758.68,690.03c-.81,1.46-1.58,3.18-2.43,3.22-5.25.25-10.53.13-16.13.13v-84.31h18.56c0,26.72,0,53.58,0,80.96Z"/>
  <path class="st6" d="M600.35,672.73c0-13.88,0-27.21,0-40.93h18.85v61.27h-18.85c0-6.73,0-13.26,0-20.34Z"/>
  <path class="st6" d="M723.16,663.93c0,9.87,0,19.19,0,28.99h-19v-61.08h19c0,10.48,0,21.01,0,32.09Z"/>
  <path class="st12" d="M442.64,298.4c17.98-.02,35.4-.07,52.83-.03,2.86,0,4.93-.39,6.87-3.14,3.05-4.33,8.92-4.34,12.55-.74,3.49,3.45,3.47,9.04-.03,12.3-3.71,3.46-9.84,3.43-12.59-.85-1.97-3.07-4.19-3.45-7.24-3.45-45.31.05-90.61.01-135.92.18-1.93,0-4.31,1.37-5.69,2.84-3.99,4.23-9.05,4.95-13.11,1.35-3.75-3.33-3.83-9.38-.17-12.71,3.91-3.56,9.04-2.74,13.11,1.42,1.5,1.53,4.16,2.71,6.3,2.73,27.51.18,55.03.12,83.09.12M347.86,295.71c-2.17,1.09-4.85,1.75-6.27,3.46-.65.79.72,4.73,2.01,5.27,1.7.72,4.92.25,6.24-1.01,2.56-2.43,1.63-5.29-1.98-7.73M509.03,305.27c3.22-.43,5.29-2.39,4.36-5.45-.54-1.78-2.9-3.82-4.71-4.12-1.26-.21-3.76,2.08-4.31,3.73-.94,2.83.18,5.38,4.65,5.85Z"/>
  <path class="st12" d="M429.42,466.82c-9.54-.02-18.53.01-27.52-.11-2.89-.04-4.95.42-6.81,3.23-2.91,4.41-8.87,4.57-12.47,1.02-3.59-3.54-3.62-8.93-.08-12.26,3.65-3.43,9.2-2.83,12.78.81,1.52,1.54,4.03,2.97,6.1,2.98,42.02.15,84.03.12,126.05-.07,2.22-.01,4.94-1.26,6.58-2.83,7.04-6.7,13.66-13.84,20.67-20.57,1.72-1.66,4.33-2.4,6.53-3.56.38.55.76,1.1,1.15,1.65-7.06,7.1-14.58,13.82-21.06,21.41-5.65,6.62-12,8.57-20.53,8.43-30.27-.48-60.54-.16-91.37-.15M386.78,469.24c2.12-1.07,4.7-1.75,6.14-3.41.58-.67-.93-4.64-2.19-5.07-1.75-.6-4.78.07-6.13,1.37-2.48,2.39-1.03,4.93,2.19,7.11Z"/>
  <path class="st16" d="M529.08,437.68c-6.04,8.75-13.91,10.92-24.18,10.78-43.85-.6-87.71-.24-131.56-.28-3.06,0-5.36.24-7.22,3.45-2.29,3.95-8.7,4.3-12.22,1.4-3.65-3.02-4.2-8.71-1.17-12.31,3.21-3.83,9.43-4.46,12.52-.36,2.58,3.42,5.44,3.63,8.98,3.62,46.06-.04,92.11-.11,138.17.08,4.36.02,6.73-2.1,9.2-4.86,2.11-2.36,4.29-4.55,7.49-1.52M355.64,443.21c.04,2.17-.47,4.58.32,6.42.43,1,3.94,1.96,4.55,1.37,1.7-1.63,3.97-4.42,3.54-6.14-.99-3.98-4.32-4.39-8.41-1.65Z"/>
  <path class="st6" d="M526.33,327.21c.38-2.63-1.45-6.09,3.01-7.58,12.31,2.28,24.69,3.85,36.31,7.73,11.84,3.96,22.92,10.18,34.58,15.71-4.35-1.05-8.51-.18-13.01,2.88-19.64-10.03-39.62-16.46-60.9-18.74Z"/>
  <path class="st12" d="M493.05,495.54c-3.03-6.31-2.37-10.14,1.88-12.88,4.08-2.62,7.88-1.62,11.82,3.15.47.56.73,1.38,1.3,1.76,3.54,2.34,23.63,0,26.62-3.03,15.07-15.28,30.09-30.62,45.29-45.77,1.7-1.69,4.42-2.37,6.67-3.51.34.48.67.97,1.01,1.45-.98,1.17-1.89,2.41-2.96,3.49-16.04,16.14-32.15,32.2-48.09,48.42-2.66,2.71-5.37,3.98-9.18,3.69-4.01-.31-8.07.02-12.1-.08-4.03-.11-7.42-.14-10.42,3.93-3.13,4.24-7.76,3.16-11.83-.61M498.59,495.01c5.12-1.11,7.36-4.36,4.85-7.52-1.05-1.33-3.33-2.46-4.94-2.34-1.34.1-3.67,2.31-3.54,3.35.25,2.15,1.84,4.15,3.63,6.51Z"/>
  <path class="st2" d="M519.26,284.09c-2.39-1.16-4.43-2.67-6.54-2.78-6.03-.31-12.09-.04-18.14-.01-4.49.02-8.74-.49-11.86,4.5-2.33,3.72-7.89,3.12-11.18-.1-3.49-3.42-3.52-8.89-.05-12.31,3.27-3.24,8.67-3.86,11.19-.2,2.89,4.2,6.47,4.03,10.49,3.96,3.12-.06,6.31.45,9.33-.08,11.71-2.02,20.04,2.68,27.32,11.64,6.4,7.88,14.02,14.78,21.11,22.1-.27.45-.55.9-.82,1.34-2.26-1.11-4.99-1.74-6.69-3.41-8.1-7.96-15.92-16.2-24.16-24.64M479.6,275.18c-2.29.76-4.98,1.06-6.68,2.51-.69.59.21,4.73,1.42,5.41,1.57.89,5.68.55,6.05-.34.83-2.02.02-4.7-.79-7.59Z"/>
  <path class="st16" d="M554.99,286.92c6.24,6.87,12.31,13.46,18.79,19.63,1.44,1.37,4.38,1.88,6.52,1.66,6.04-.62,10.31,1.66,14.35,6.06,7.27,7.91,15.07,15.34,22.65,22.97-.21.46-.42.91-.63,1.37-2.43-1.02-5.39-1.49-7.2-3.17-6.15-5.74-12.16-11.68-17.69-18.02-2.94-3.37-5.95-5.38-10.35-4.67-6.36,1.03-10.53-1.87-14.43-6.61-4.4-5.34-9.51-10.11-14.51-14.93-1.03-.99-2.87-1.41-4.39-1.56-6.15-.61-9.18-3.88-8.56-9.53.54-4.92,4.69-7.88,9.86-7.04,4.99.81,7.53,5.05,6.43,10.83-.17.89-.58,1.73-.85,3.02M552.33,279.8c-1.69-2.94-4.13-4.48-7.11-2.25-1.29.96-2.63,3.83-2.09,4.84.92,1.7,3.9,4.01,4.94,3.56,1.92-.83,3.07-3.46,4.26-6.15Z"/>
  <path class="st12" d="M635.06,338.27c-11.62-11.76-22.87-23.33-34.4-34.62-1.83-1.79-4.81-2.83-7.43-3.33-4.89-.93-8.27-4.8-7.68-9.69.54-4.51,4.32-7.63,8.79-7.27,4.85.39,9.05,4.77,7.66,9.43-1.36,4.54.76,6.67,3.37,9.33,14.77,15,29.46,30.07,45.24,46.19-8.43.02-10.85-6.44-15.55-10.05M598.51,290.6c-1.81-1.14-3.52-2.87-5.46-3.19-1.09-.18-3.27,1.78-3.66,3.16-.39,1.37.36,3.65,1.43,4.74,2.86,2.9,6.4,1.07,7.69-4.7Z"/>
  <path class="st10" d="M603.49,622.2c-5.59-5.04-6.56-9.98-3.22-14.62,3.18-4.42,10.53-5.81,15.96-3.03,4.61,2.37,6.65,7.7,4.82,12.63-2.3,6.19-8.91,8.19-17.55,5.02Z"/>
  <path class="st6" d="M724.65,611.71c.54,4.59-.88,7.92-4.48,10.21-5.79,3.69-14.22,1.84-17.33-3.77-2.83-5.12-.45-11.74,5.1-14.18,6.95-3.05,13.97.05,16.71,7.74Z"/>
  <path class="st16" d="M600.01,442.52c3.53-2.87,5.45-7.85,11.61-6.2-.95,1.21-1.68,2.3-2.57,3.23-7.61,7.93-15.34,15.74-22.8,23.81-1.2,1.3-1.96,3.72-1.75,5.49.68,5.69-1.72,9.74-6.89,10.59-4.78.79-9.01-2.6-9.53-7.62-.55-5.35,2.58-8.55,8.39-9.37,2.28-.32,4.82-1.44,6.5-3,5.77-5.36,11.21-11.07,17.05-16.93M576.38,465.9c-3.3.6-5.87,2.33-4.69,5.87.57,1.7,3.14,3.43,5.03,3.73,1.27.21,4.37-2.44,4.18-3.14-.62-2.28-2.37-4.26-4.52-6.46Z"/>
  <path class="st16" d="M353.93,322.58c1.51,3.77,1.4,4.08-2.65,4.13-8.43.1-16.87-.23-25.28.13-2.58.11-5.46,1.4-7.56,2.99-4.28,3.23-9.07,3.43-12.3-.2-3.04-3.41-2.85-9.07.39-11.95,3.92-3.48,8.82-2.83,12.58,1.23,1.31,1.41,3.44,2.78,5.26,2.87,9.68.47,19.39.53,29.56.79M317.2,324.18c-1.77-1.63-3.32-3.85-5.41-4.62-.85-.32-3.87,2.37-4.05,3.91-.18,1.49,2.1,4.68,3.15,4.62,2.14-.12,4.19-1.93,6.32-3.91Z"/>
  <path class="st6" d="M337.53,350.09c-.76,1.53-1.81,3.3-3.35,4.36-2.14,1.47-4.65,2.42-7.07,3.97-6.62.38-13.16.38-19.64.38q-.33-8.57,7.11-8.61c7.48-.05,14.96-.12,22.95-.09Z"/>
  <path class="st2" d="M307.95,409.06c.4,1.09.39,2.03.38,3.31-1.52,1.34-3.42,2.04-4.51,3.38-3.59,4.41-8.97,5.33-12.93,1.9-3.88-3.36-4.11-9.02-.51-12.6,3.7-3.68,9.21-3.14,13.03,1.07,1.09,1.2,2.74,1.87,4.55,2.95M299.06,407.02c-2.34.58-5.14.61-6.8,2-.74.62.14,4.8,1.48,5.84,1.25.97,4.59.64,6.08-.42,2.57-1.83,2.41-4.62-.75-7.42Z"/>
  <path class="st2" d="M267.54,355.36c.05-.66.45-1.59.96-1.64,8.14-.91,16.3-1.72,25.01-2.6.21,2.15.37,3.84.6,6.24-9.11-.64-17.63-1.25-26.57-2Z"/>
  <path class="st11" d="M525.81,327.26c21.79,2.24,41.77,8.66,60.97,18.81,7.34,4.39,14.32,8.69,22.39,13.65-8.41,0-15.56.25-22.69-.05-21.6-.89-43.19-2.13-64.79-2.89-4.19-.15-6.14-1.57-7.49-5.36-2.86-8.04-6.13-15.95-9.31-24.13,7.28,0,13.85,0,20.93-.04Z"/>
  <path class="st11" d="M448.97,332.08c14.1-5.05,28.43-4.8,42.68-5.03,1-.02,2.64,2.15,2.97,3.54,1.88,7.98,3.45,16.03,5.32,24.95-25.25-2.37-50.25-.61-74.62-6.05-.25-.86-.5-1.72-.74-2.58,8.01-4.88,16.02-9.76,24.4-14.83Z"/>
  <path class="st3" d="M684.08,377.13c4.42-2,17.88,1.06,23.2,5.17,2.21,1.71,4.01,3.96,5.63,6.4-11.06-.33-23.14,2.43-28.83-11.58Z"/>
  <path class="st11" d="M352.25,631.84c11.89,8.81,14.98,24.12,7.54,35.76-6.55,10.25-21.13,13.67-32.17,7.55-11.52-6.39-15.95-22.48-9.53-34.6,6.3-11.88,20.32-15.58,34.16-8.71Z"/>
  <path class="st3" d="M487.77,649.52c4.94,5.37,5.61,11.43,4.39,17.8-1.31,6.85-7.04,11.49-14.05,11.72-6.89.23-12.47-3.72-14.56-10.32-2.39-7.54-.29-16.05,4.98-20.13,5.02-3.89,12.46-3.64,19.25.93Z"/>
  <path class="st11" d="M652.89,397.25c8.92,3.62,12.68,10.09,10.61,17.68-1.82,6.7-8.67,11.37-15.43,10.53-8.96-1.11-14.24-8.18-12.82-17.14,1.11-6.98,8.96-13.65,17.63-11.07Z"/>
  <path class="st11" d="M417.61,396.63c13.18.69,17.42,10.23,14.61,19.5-1.75,5.79-8.19,9.99-13.92,9.62-6.96-.45-12.63-5.62-13.92-12.68-1.03-5.63,2.54-12.22,8.13-14.83,1.48-.69,3.11-1.05,5.09-1.6Z"/>
  <path class="st3" d="M348.24,295.9c3.24,2.25,4.17,5.11,1.61,7.54-1.33,1.26-4.54,1.73-6.24,1.01-1.29-.55-2.66-4.49-2.01-5.27,1.42-1.71,4.1-2.37,6.64-3.28Z"/>
  <path class="st3" d="M508.58,305.27c-4.02-.47-5.14-3.01-4.2-5.85.55-1.64,3.05-3.94,4.31-3.73,1.81.3,4.17,2.34,4.71,4.12.93,3.06-1.14,5.02-4.82,5.45Z"/>
  <path class="st3" d="M386.4,469.08c-2.84-2.03-4.3-4.57-1.81-6.96,1.35-1.3,4.39-1.97,6.13-1.37,1.26.43,2.77,4.39,2.19,5.07-1.44,1.66-4.02,2.34-6.51,3.26Z"/>
  <path class="st3" d="M355.95,442.89c3.78-2.43,7.11-2.02,8.1,1.97.43,1.72-1.84,4.51-3.54,6.14-.61.59-4.12-.37-4.55-1.37-.79-1.85-.29-4.25,0-6.74Z"/>
  <path class="st3" d="M498.22,494.86c-1.41-2.21-3-4.2-3.26-6.36-.12-1.04,2.2-3.25,3.54-3.35,1.62-.12,3.89,1.01,4.94,2.34,2.5,3.16.27,6.41-5.23,7.37Z"/>
  <path class="st3" d="M479.94,275.42c.48,2.65,1.28,5.33.46,7.35-.37.89-4.47,1.23-6.05.34-1.21-.69-2.11-4.82-1.42-5.41,1.7-1.45,4.39-1.75,7.01-2.28Z"/>
  <path class="st3" d="M552.47,280.2c-1.33,2.28-2.48,4.92-4.4,5.75-1.04.45-4.03-1.86-4.94-3.56-.54-1.01.8-3.87,2.09-4.84,2.98-2.23,5.42-.69,7.26,2.65Z"/>
  <path class="st3" d="M598.61,291.01c-1.39,5.35-4.94,7.19-7.8,4.28-1.07-1.08-1.82-3.37-1.43-4.74.4-1.37,2.57-3.33,3.66-3.16,1.94.32,3.65,2.05,5.56,3.61Z"/>
  <path class="st3" d="M576.79,465.95c1.73,2.15,3.49,4.12,4.1,6.4.19.7-2.9,3.35-4.18,3.14-1.89-.31-4.46-2.03-5.03-3.73-1.19-3.53,1.39-5.27,5.1-5.82Z"/>
  <path class="st3" d="M317.17,324.61c-2.11,1.55-4.15,3.36-6.29,3.48-1.05.06-3.33-3.13-3.15-4.62.19-1.54,3.2-4.22,4.05-3.91,2.09.77,3.64,2.99,5.39,5.05Z"/>
  <path class="st3" d="M299.41,407.26c2.81,2.55,2.97,5.35.4,7.17-1.49,1.06-4.83,1.39-6.08.42-1.33-1.04-2.22-5.22-1.48-5.84,1.67-1.39,4.47-1.41,7.16-1.75Z"/>
  <text class="st1" transform="translate(293.6 738.86)"><tspan x="0" y="0">Dijital Araç Kayıt Sistemi</tspan></text>
</svg>